<svg xmlns="http://www.w3.org/2000/svg" width="23.087" height="15.74" viewBox="0 0 23.087 15.74"><defs><style>.a{fill:#3c4858;}</style></defs><g transform="translate(-426 -313)"><path class="a" d="M19.821,6.623h-2.1v-2.1A.526.526,0,0,0,17.2,4H16.148a.526.526,0,0,0-.525.525v2.1h-2.1A.526.526,0,0,0,13,7.148V8.2a.526.526,0,0,0,.525.525h2.1v2.1a.526.526,0,0,0,.525.525H17.2a.526.526,0,0,0,.525-.525v-2.1h2.1a.526.526,0,0,0,.525-.525V7.148A.526.526,0,0,0,19.821,6.623Z" transform="translate(428.742 313.198)"/><path class="a" d="M16.264,34.1h-2.1l-.235-.469a1.049,1.049,0,0,0-.938-.58H11.234l-.895-.895a.525.525,0,0,0-.9.371V37.44l4.2,1.5V37.773H14.69a2.1,2.1,0,0,0,2.1-2.1V34.625A.525.525,0,0,0,16.264,34.1Zm-3.673,1.574a.525.525,0,1,1,.525-.525A.525.525,0,0,1,12.592,35.674ZM3.148,38.3A1.051,1.051,0,0,1,2.1,37.248a1.049,1.049,0,1,0-2.1,0A3.143,3.143,0,0,0,2.1,40.2v7.014a.525.525,0,0,0,.525.525h2.1a.525.525,0,0,0,.525-.525V43.544h5.247v3.673a.525.525,0,0,0,.525.525h2.1a.525.525,0,0,0,.525-.525V40.053L8.724,38.3Z" transform="translate(426 280.999)"/></g></svg>