<svg xmlns="http://www.w3.org/2000/svg" width="140.5" height="27.403" viewBox="0 0 140.5 27.403"><g transform="translate(-156.363 -246.033)"><g transform="translate(156.363 246.033)"><path d="M193.887,255.633c-.883-4.79-3.374-6.87-7.994-5.407-.028.009-.027-.027-.478-.4-7.7-6.363-17.749-4.55-22.566,4.144-4.435.318-6.552,2.669-6.485,7.08.051,3.331,2.714,6.78,6.667,6.422a1.386,1.386,0,0,1,1.126.515c1.136,2.2,2.613,3.992,4.718,4.578,12.338,3.431,20.01-4.094,20.862-8.507a4.977,4.977,0,0,1,.233-1.167A6.443,6.443,0,0,0,193.887,255.633Zm-32.21,8.818a3.227,3.227,0,0,1-2.417-3.356c-.052-1.615.255-3.32,1.976-3.824,1.286-.377,1.464.17,1.424.868a18.815,18.815,0,0,0,.014,2.641,19.382,19.382,0,0,0,.3,2.336C163.235,264.353,162.734,264.732,161.678,264.451Zm21.307-2.093a2.6,2.6,0,0,0-1.261,2.269,5.232,5.232,0,0,1-4.623,4.926,5.42,5.42,0,0,1-5.968-3.524c-.2-.471-.6-1.107-1.006-1.2a5.526,5.526,0,0,1-3.7-7.77,5.424,5.424,0,0,1,7.031-2.681,2.5,2.5,0,0,0,2.284-.117,12.274,12.274,0,0,1,3.363-1.611,5.129,5.129,0,0,1,5.838,3.373A5.28,5.28,0,0,1,182.985,262.357Zm6.119-2.691c-.461-.028-1.006-.736-1.16-1.237a12.993,12.993,0,0,1-.388-2.82,2.934,2.934,0,0,1,.629-2.4c.877-.912,1.453-.432,2.215.879a8.011,8.011,0,0,1,.7,1.831C191.413,257.032,191.109,259.789,189.1,259.667Z" transform="translate(-156.363 -246.033)" fill="#fff"/><path d="M203.857,289.43c.713.506,1.327.533,1.731-.3a.641.641,0,0,1,.951-.26,2.38,2.38,0,0,1,.75,3.449,2.6,2.6,0,0,1-3.762.728,2.357,2.357,0,0,1-.62-3.411A.656.656,0,0,1,203.857,289.43Z" transform="translate(-190.211 -277.407)" fill="#fff"/><path d="M235.959,283.317c.743.688,1.389.613,1.876-.331a.506.506,0,0,1,.755-.164,2.489,2.489,0,0,1,.77,3.592,2.694,2.694,0,0,1-3.65.664c-1.211-.807-1.422-2.216-.564-3.648A.527.527,0,0,1,235.959,283.317Z" transform="translate(-213.845 -272.978)" fill="#fff"/><path d="M220.888,306.833a.421.421,0,0,1,.67-.009c.375.48.675.8.69,1.141s-.631,1.008-.885.964a1.568,1.568,0,0,1-1.121-.934C220.2,307.694,220.514,307.34,220.888,306.833Z" transform="translate(-203.279 -290.565)" fill="#fff"/><path d="M235.808,306.017a.438.438,0,0,1-.007.683c-.472.37-.8.672-1.138.684s-.992-.663-.944-.93a1.59,1.59,0,0,1,.965-1.127C234.978,305.286,235.324,305.624,235.808,306.017Z" transform="translate(-213.178 -289.581)" fill="#fff"/></g><g transform="translate(200.334 247.315)"><path d="M327.322,278.732a9.73,9.73,0,0,1-3.952-4.049,14.243,14.243,0,0,1,0-12.307,9.736,9.736,0,0,1,3.952-4.049,13.121,13.121,0,0,1,13.127.739,2.5,2.5,0,0,1,.787.835,2.443,2.443,0,0,1,.241,1.157,2.588,2.588,0,0,1-.562,1.687,1.7,1.7,0,0,1-1.366.691,2.458,2.458,0,0,1-.868-.145,5.219,5.219,0,0,1-.9-.466,9.119,9.119,0,0,0-2.121-.964,7.341,7.341,0,0,0-2.057-.289,5.164,5.164,0,0,0-4.258,1.719,10.513,10.513,0,0,0,0,10.476,5.163,5.163,0,0,0,4.258,1.719,5.758,5.758,0,0,0,1.864-.305q.9-.305,2.313-.948.675-.353,1-.482a2.084,2.084,0,0,1,.771-.129,1.706,1.706,0,0,1,1.366.691,2.59,2.59,0,0,1,.562,1.687,2.187,2.187,0,0,1-1.028,1.992,13.122,13.122,0,0,1-13.127.739Z" transform="translate(-321.972 -255.306)" fill="#fff"/><path d="M415.557,294.025a2.335,2.335,0,0,1,.466,1.51,2.125,2.125,0,0,1-1.253,1.96,12.47,12.47,0,0,1-2.587.916,11.524,11.524,0,0,1-2.748.37,10.012,10.012,0,0,1-4.595-1,7.082,7.082,0,0,1-3.021-2.86,8.689,8.689,0,0,1-1.06-4.37,8.836,8.836,0,0,1,1.012-4.258,7.288,7.288,0,0,1,2.828-2.924,8.069,8.069,0,0,1,4.1-1.045,7.642,7.642,0,0,1,3.888.964,6.57,6.57,0,0,1,2.587,2.731,8.893,8.893,0,0,1,.916,4.145,1.726,1.726,0,0,1-.337,1.141,1.208,1.208,0,0,1-.98.4h-8.483a3.522,3.522,0,0,0,1,2.217,3.374,3.374,0,0,0,2.282.675,5.824,5.824,0,0,0,1.478-.177,14.459,14.459,0,0,0,1.51-.5q.482-.193.948-.337a2.9,2.9,0,0,1,.852-.145A1.476,1.476,0,0,1,415.557,294.025Zm-8.5-7.118a3.469,3.469,0,0,0-.8,2.105H411.3q-.193-2.828-2.442-2.828A2.344,2.344,0,0,0,407.058,286.907Z" transform="translate(-379.841 -273.973)" fill="#fff"/><path d="M467.756,296.6a7.9,7.9,0,0,1-2.249-5.945,8.6,8.6,0,0,1,1.092-4.37,7.414,7.414,0,0,1,3.069-2.924,9.64,9.64,0,0,1,4.515-1.028,10.631,10.631,0,0,1,2.7.353,8.568,8.568,0,0,1,2.378,1,2.038,2.038,0,0,1,1,1.864,2.654,2.654,0,0,1-.466,1.623,1.438,1.438,0,0,1-1.205.626,3.026,3.026,0,0,1-.932-.144,6.225,6.225,0,0,1-1-.434,10.907,10.907,0,0,0-1.093-.434,3.251,3.251,0,0,0-1-.144q-3.181,0-3.181,3.888a4.581,4.581,0,0,0,.819,2.94,2.863,2.863,0,0,0,2.362,1.012,3.393,3.393,0,0,0,1.012-.145,7.108,7.108,0,0,0,1.045-.434q.642-.29,1.044-.434a2.586,2.586,0,0,1,.884-.145,1.438,1.438,0,0,1,1.205.627,2.654,2.654,0,0,1,.466,1.623,2.381,2.381,0,0,1-.257,1.108,1.788,1.788,0,0,1-.707.755,10.2,10.2,0,0,1-5.4,1.35A8.389,8.389,0,0,1,467.756,296.6Z" transform="translate(-427.396 -273.973)" fill="#fff"/><path d="M529.622,274.945a2.383,2.383,0,0,1-.819-1.976V261.915a2.385,2.385,0,0,1,.819-1.976,3.489,3.489,0,0,1,4.081,0,2.385,2.385,0,0,1,.819,1.976v11.054a2.384,2.384,0,0,1-.819,1.976,3.49,3.49,0,0,1-4.081,0Zm2.169-17.24a1.4,1.4,0,0,1-1.028-.418,1.323,1.323,0,0,1-.418-.964,1.531,1.531,0,0,1,.353-.964l2.378-3.277a3.123,3.123,0,0,1,1.012-.916,2.369,2.369,0,0,1,1.141-.305,2.333,2.333,0,0,1,1.639.659,2.064,2.064,0,0,1,.707,1.559,2.31,2.31,0,0,1-1.189,1.928l-3.631,2.378A1.629,1.629,0,0,1,531.791,257.706Z" transform="translate(-473.887 -250.861)" fill="#fff"/><path d="M563.629,279.746a2.383,2.383,0,0,1-.82-1.976V260.064a2.432,2.432,0,0,1,.82-1.992,3.422,3.422,0,0,1,4.081,0,2.431,2.431,0,0,1,.819,1.992V277.77a2.383,2.383,0,0,1-.819,1.976,3.49,3.49,0,0,1-4.081,0Z" transform="translate(-498.864 -255.662)" fill="#fff"/><path d="M596.578,258.143a2.552,2.552,0,0,1-.852-2.008,2.5,2.5,0,0,1,.852-1.992,3.915,3.915,0,0,1,4.579,0,2.483,2.483,0,0,1,.868,1.992,2.553,2.553,0,0,1-.851,2.008,3.873,3.873,0,0,1-4.6,0Zm.257,18.67a2.383,2.383,0,0,1-.82-1.976V263.782a2.384,2.384,0,0,1,.82-1.976,3.489,3.489,0,0,1,4.081,0,2.385,2.385,0,0,1,.819,1.976v11.054a2.383,2.383,0,0,1-.819,1.976,3.49,3.49,0,0,1-4.081,0Z" transform="translate(-523.041 -252.728)" fill="#fff"/><path d="M641.73,284.079q1.752,1.752,1.752,5.318v6.716a2.517,2.517,0,0,1-.723,1.912,2.787,2.787,0,0,1-2.008.691,2.676,2.676,0,0,1-1.848-.643,2.406,2.406,0,0,1-.787-1.735,3.559,3.559,0,0,1-1.51,1.8,4.813,4.813,0,0,1-2.539.643,6.525,6.525,0,0,1-2.956-.658,5.136,5.136,0,0,1-2.073-1.832,4.788,4.788,0,0,1-.755-2.651,3.982,3.982,0,0,1,.884-2.715,5.192,5.192,0,0,1,2.812-1.462,23.889,23.889,0,0,1,5.205-.45h.868v-.386a2.186,2.186,0,0,0-.514-1.623,2.454,2.454,0,0,0-1.735-.5,12.77,12.77,0,0,0-3.856.9,3.938,3.938,0,0,1-1.253.257,1.589,1.589,0,0,1-1.286-.579,2.28,2.28,0,0,1-.482-1.51,2.1,2.1,0,0,1,.289-1.157,2.513,2.513,0,0,1,.932-.8,11.229,11.229,0,0,1,2.828-.932,16.443,16.443,0,0,1,3.342-.353Q639.979,282.328,641.73,284.079Zm-4.418,10.058a3.023,3.023,0,0,0,.739-2.1v-.386h-.514a8.193,8.193,0,0,0-2.924.369,1.27,1.27,0,0,0-.868,1.237,1.684,1.684,0,0,0,.466,1.221,1.6,1.6,0,0,0,1.2.482A2.439,2.439,0,0,0,637.312,294.137Z" transform="translate(-546.953 -273.973)" fill="#fff"/></g></g></svg>