<svg xmlns="http://www.w3.org/2000/svg" width="37.645" height="27.403" viewBox="0 0 37.645 27.403"><defs><style>.a{fill:#fff;}</style></defs><path class="a" d="M193.887,255.633c-.883-4.79-3.374-6.87-7.994-5.407-.028.009-.027-.027-.478-.4-7.7-6.363-17.749-4.55-22.566,4.144-4.435.318-6.552,2.669-6.485,7.08.051,3.331,2.714,6.78,6.667,6.422a1.386,1.386,0,0,1,1.126.515c1.136,2.2,2.613,3.992,4.718,4.578,12.338,3.431,20.01-4.094,20.862-8.507a4.977,4.977,0,0,1,.233-1.167A6.443,6.443,0,0,0,193.887,255.633Zm-32.21,8.818a3.227,3.227,0,0,1-2.417-3.356c-.052-1.615.255-3.32,1.976-3.824,1.286-.377,1.464.17,1.424.868a18.815,18.815,0,0,0,.014,2.641,19.382,19.382,0,0,0,.3,2.336C163.235,264.353,162.734,264.732,161.678,264.451Zm21.307-2.093a2.6,2.6,0,0,0-1.261,2.269,5.232,5.232,0,0,1-4.623,4.926,5.42,5.42,0,0,1-5.968-3.524c-.2-.471-.6-1.107-1.006-1.2a5.526,5.526,0,0,1-3.7-7.77,5.424,5.424,0,0,1,7.031-2.681,2.5,2.5,0,0,0,2.284-.117,12.274,12.274,0,0,1,3.363-1.611,5.129,5.129,0,0,1,5.838,3.373A5.28,5.28,0,0,1,182.985,262.357Zm6.119-2.691c-.461-.028-1.006-.736-1.16-1.237a12.993,12.993,0,0,1-.388-2.82,2.934,2.934,0,0,1,.629-2.4c.877-.912,1.453-.432,2.215.879a8.011,8.011,0,0,1,.7,1.831C191.413,257.032,191.109,259.789,189.1,259.667Z" transform="translate(-156.363 -246.033)"/><path class="a" d="M203.857,289.43c.713.506,1.327.533,1.731-.3a.641.641,0,0,1,.951-.26,2.38,2.38,0,0,1,.75,3.449,2.6,2.6,0,0,1-3.762.728,2.357,2.357,0,0,1-.62-3.411A.656.656,0,0,1,203.857,289.43Z" transform="translate(-190.211 -277.407)"/><path class="a" d="M235.959,283.317c.743.688,1.389.613,1.876-.331a.506.506,0,0,1,.755-.164,2.489,2.489,0,0,1,.77,3.592,2.694,2.694,0,0,1-3.65.664c-1.211-.807-1.422-2.216-.564-3.648A.527.527,0,0,1,235.959,283.317Z" transform="translate(-213.845 -272.978)"/><path class="a" d="M220.888,306.833a.421.421,0,0,1,.67-.009c.375.48.675.8.69,1.141s-.631,1.008-.885.964a1.568,1.568,0,0,1-1.121-.934C220.2,307.694,220.514,307.34,220.888,306.833Z" transform="translate(-203.279 -290.565)"/><path class="a" d="M235.808,306.017a.438.438,0,0,1-.007.683c-.472.37-.8.672-1.138.684s-.992-.663-.944-.93a1.59,1.59,0,0,1,.965-1.127C234.978,305.286,235.324,305.624,235.808,306.017Z" transform="translate(-213.178 -289.581)"/></svg>